<svg xmlns="http://www.w3.org/2000/svg" width="1180" height="670" viewBox="0 0 1180 670" font-family="Inter, 'Segoe UI', system-ui, -apple-system, Helvetica, Arial, sans-serif">
<defs>
<marker id="arrow-stable" viewBox="0 0 10 10" refX="9" refY="5" markerWidth="7" markerHeight="7" orient="auto-start-reverse"><path d="M0 0L10 5L0 10z" fill="#4cc38a"/></marker>
<marker id="arrow-beta" viewBox="0 0 10 10" refX="9" refY="5" markerWidth="7" markerHeight="7" orient="auto-start-reverse"><path d="M0 0L10 5L0 10z" fill="#f5a524"/></marker>
<marker id="arrow-upstream" viewBox="0 0 10 10" refX="9" refY="5" markerWidth="7" markerHeight="7" orient="auto-start-reverse"><path d="M0 0L10 5L0 10z" fill="#a78bfa"/></marker>
<marker id="arrow-backport" viewBox="0 0 10 10" refX="9" refY="5" markerWidth="7" markerHeight="7" orient="auto-start-reverse"><path d="M0 0L10 5L0 10z" fill="#e0a95b"/></marker>
<marker id="arrow-muted" viewBox="0 0 10 10" refX="9" refY="5" markerWidth="7" markerHeight="7" orient="auto-start-reverse"><path d="M0 0L10 5L0 10z" fill="#a3adab"/></marker>
<marker id="arrow-danger" viewBox="0 0 10 10" refX="9" refY="5" markerWidth="7" markerHeight="7" orient="auto-start-reverse"><path d="M0 0L10 5L0 10z" fill="#f87171"/></marker>
</defs>
<rect width="1180" height="670" rx="16" fill="#181b1a"/>
<text x="32" y="38" font-size="17.6" font-weight="400" fill="#a3adab" text-anchor="start">A brand that follows upstream main (follow: "development") tests each upstream change as its own beta.</text>
<rect x="16" y="56" width="1148" height="300" rx="12" fill="#202423" fill-opacity="1" stroke="#343a38"/>
<text x="32" y="82" font-size="16.2" font-weight="700" fill="#f4f7f6" text-anchor="start">your brand repository  (streams.upstream.suffix: "acme")</text>
<rect x="16" y="400" width="1148" height="186" rx="12" fill="#a78bfa" fill-opacity="0.06" stroke="#343a38"/>
<text x="32" y="426" font-size="16.2" font-weight="700" fill="#a78bfa" text-anchor="start">upstream  (frogg-app/frogg)</text>
<text x="32" y="128" font-size="20.3" font-weight="700" fill="#4cc38a" text-anchor="start">stable</text><text x="32" y="146" font-size="16.2" font-weight="400" fill="#a3adab" text-anchor="start">ships Acme</text>
<text x="32" y="228" font-size="20.3" font-weight="700" fill="#f5a524" text-anchor="start">main</text><text x="32" y="246" font-size="16.2" font-weight="400" fill="#a3adab" text-anchor="start">ships Acme Beta</text>
<text x="32" y="324" font-size="20.3" font-weight="700" fill="#7c8783" text-anchor="start">feature/*</text><text x="32" y="342" font-size="16.2" font-weight="400" fill="#a3adab" text-anchor="start">your changes</text>
<text x="32" y="474" font-size="20.3" font-weight="700" fill="#a78bfa" text-anchor="start">main</text><text x="32" y="492" font-size="16.2" font-weight="400" fill="#a3adab" text-anchor="start">upstream/main</text>
<text x="32" y="554" font-size="20.3" font-weight="700" fill="#a78bfa" text-anchor="start">stable</text><text x="32" y="572" font-size="16.2" font-weight="400" fill="#a3adab" text-anchor="start">upstream/stable</text>
<line x1="220" y1="124" x2="1120" y2="124" stroke="#4cc38a" stroke-width="4" stroke-linecap="round" stroke-opacity="0.8"/>
<line x1="220" y1="224" x2="1120" y2="224" stroke="#f5a524" stroke-width="4" stroke-linecap="round" stroke-opacity="0.8"/>
<line x1="660" y1="320" x2="890" y2="320" stroke="#7c8783" stroke-width="4" stroke-linecap="round" stroke-opacity="0.8" stroke-dasharray="6 6"/>
<line x1="220" y1="470" x2="1120" y2="470" stroke="#a78bfa" stroke-width="4" stroke-linecap="round" stroke-opacity="0.8"/>
<line x1="220" y1="550" x2="1120" y2="550" stroke="#a78bfa" stroke-width="4" stroke-linecap="round" stroke-opacity="0.8" stroke-dasharray="6 6"/>
<circle cx="300" cy="470" r="8" fill="#a78bfa" stroke="#181b1a" stroke-width="2"/><text x="300" y="496" font-size="16.2" font-weight="400" fill="#f4f7f6" text-anchor="middle" font-family="'JetBrains Mono', 'SFMono-Regular', Menlo, Consolas, monospace">1.8.0-beta.2</text>
<circle cx="560" cy="470" r="8" fill="#a78bfa" stroke="#181b1a" stroke-width="2"/><text x="560" y="496" font-size="16.2" font-weight="400" fill="#f4f7f6" text-anchor="middle" font-family="'JetBrains Mono', 'SFMono-Regular', Menlo, Consolas, monospace">1.8.0-beta.3</text>
<circle cx="1040" cy="470" r="8" fill="#181b1a" stroke="#a78bfa" stroke-width="2.5" stroke-dasharray="3 2"/><text x="1040" y="496" font-size="16.2" font-weight="400" fill="#f4f7f6" text-anchor="middle" font-family="'JetBrains Mono', 'SFMono-Regular', Menlo, Consolas, monospace">next</text>
<circle cx="260" cy="550" r="8" fill="#a78bfa" stroke="#181b1a" stroke-width="2"/><text x="260" y="576" font-size="16.2" font-weight="400" fill="#f4f7f6" text-anchor="middle" font-family="'JetBrains Mono', 'SFMono-Regular', Menlo, Consolas, monospace">1.7.0</text>
<circle cx="270" cy="124" r="8" fill="#4cc38a" stroke="#181b1a" stroke-width="2"/><text x="270" y="108" font-size="16.2" font-weight="400" fill="#f4f7f6" text-anchor="middle" font-family="'JetBrains Mono', 'SFMono-Regular', Menlo, Consolas, monospace">1.7.0-acme.1</text>
<circle cx="820" cy="124" r="8" fill="#4cc38a" stroke="#181b1a" stroke-width="2"/><text x="820" y="108" font-size="16.2" font-weight="400" fill="#f4f7f6" text-anchor="middle" font-family="'JetBrains Mono', 'SFMono-Regular', Menlo, Consolas, monospace">1.8.0-acme.1</text>
<circle cx="1030" cy="124" r="8" fill="#4cc38a" stroke="#181b1a" stroke-width="2"/><text x="1030" y="108" font-size="16.2" font-weight="400" fill="#f4f7f6" text-anchor="middle" font-family="'JetBrains Mono', 'SFMono-Regular', Menlo, Consolas, monospace">1.8.0-acme.2</text>
<circle cx="470" cy="224" r="8" fill="#f5a524" stroke="#181b1a" stroke-width="2"/><text x="470" y="250" font-size="16.2" font-weight="400" fill="#f4f7f6" text-anchor="middle" font-family="'JetBrains Mono', 'SFMono-Regular', Menlo, Consolas, monospace">1.8.0-beta.2.acme.1</text>
<circle cx="750" cy="224" r="8" fill="#f5a524" stroke="#181b1a" stroke-width="2"/><text x="750" y="250" font-size="16.2" font-weight="400" fill="#f4f7f6" text-anchor="middle" font-family="'JetBrains Mono', 'SFMono-Regular', Menlo, Consolas, monospace">1.8.0-beta.3.acme.1</text>
<path d="M 300 470 C 300 347, 340 347, 340 234" fill="none" stroke="#a78bfa" stroke-width="2.5" marker-end="url(#arrow-upstream)"/><text x="300" y="384" font-size="16.2" font-weight="600" fill="#a78bfa" text-anchor="end">sync-upstream</text>
<path d="M 560 470 C 560 347, 600 347, 600 234" fill="none" stroke="#a78bfa" stroke-width="2.5" marker-end="url(#arrow-upstream)"/>
<path d="M 750 224 C 750 174, 820 174, 820 134" fill="none" stroke="#4cc38a" stroke-width="2.5" marker-end="url(#arrow-stable)"/><text x="768" y="178" font-size="16.2" font-weight="600" fill="#4cc38a" text-anchor="end">promote</text>
<circle cx="970" cy="224" r="4" fill="#e0a95b"/>
<path d="M 970 224 C 970 174, 1030 174, 1030 134" fill="none" stroke="#e0a95b" stroke-width="2.5" stroke-dasharray="7 5" marker-end="url(#arrow-backport)"/><text x="1014" y="178" font-size="16.2" font-weight="600" fill="#e0a95b" text-anchor="start">backport</text>
<path d="M 630 224 C 630 280, 640 320, 660 320" fill="none" stroke="#7c8783" stroke-width="2"/>
<circle cx="700" cy="320" r="4" fill="#7c8783"/>
<circle cx="760" cy="320" r="4" fill="#7c8783"/>
<circle cx="830" cy="320" r="4" fill="#a78bfa"/>
<path d="M 890 320 C 915 320, 920 264, 920 236" fill="none" stroke="#7c8783" stroke-width="2" marker-end="url(#arrow-muted)"/>
<path d="M 830 320 C 830 395, 870 395, 870 460" fill="none" stroke="#a78bfa" stroke-width="2.5" stroke-dasharray="7 5" marker-end="url(#arrow-upstream)"/><text x="866" y="384" font-size="16.2" font-weight="600" fill="#a78bfa" text-anchor="start">contribute</text>
<rect x="32" y="613" width="298.05" height="28" rx="14" fill="#202423" stroke="#a78bfa"/><text x="44" y="632" font-size="15.5" font-weight="600" fill="#a78bfa" textLength="274.05" lengthAdjust="spacingAndGlyphs">npm run release:sync-upstream</text>
<rect x="342.05" y="613" width="241.35000000000002" height="28" rx="14" fill="#202423" stroke="#4cc38a"/><text x="354.05" y="632" font-size="15.5" font-weight="600" fill="#4cc38a" textLength="217.35000000000002" lengthAdjust="spacingAndGlyphs">npm run release:promote</text>
<rect x="595.4000000000001" y="613" width="250.8" height="28" rx="14" fill="#202423" stroke="#e0a95b"/><text x="607.4000000000001" y="632" font-size="15.5" font-weight="600" fill="#e0a95b" textLength="226.8" lengthAdjust="spacingAndGlyphs">npm run release:backport</text>
<rect x="858.2" y="613" width="269.70000000000005" height="28" rx="14" fill="#202423" stroke="#a78bfa"/><text x="870.2" y="632" font-size="15.5" font-weight="600" fill="#a78bfa" textLength="245.70000000000005" lengthAdjust="spacingAndGlyphs">npm run release:contribute</text>
</svg>
