<svg xmlns="http://www.w3.org/2000/svg" width="1180" height="600" viewBox="0 0 1180 600" font-family="Inter, 'Segoe UI', system-ui, -apple-system, Helvetica, Arial, sans-serif">
<defs>
<marker id="arrow-stable" viewBox="0 0 10 10" refX="9" refY="5" markerWidth="7" markerHeight="7" orient="auto-start-reverse"><path d="M0 0L10 5L0 10z" fill="#4cc38a"/></marker>
<marker id="arrow-beta" viewBox="0 0 10 10" refX="9" refY="5" markerWidth="7" markerHeight="7" orient="auto-start-reverse"><path d="M0 0L10 5L0 10z" fill="#f5a524"/></marker>
<marker id="arrow-upstream" viewBox="0 0 10 10" refX="9" refY="5" markerWidth="7" markerHeight="7" orient="auto-start-reverse"><path d="M0 0L10 5L0 10z" fill="#a78bfa"/></marker>
<marker id="arrow-backport" viewBox="0 0 10 10" refX="9" refY="5" markerWidth="7" markerHeight="7" orient="auto-start-reverse"><path d="M0 0L10 5L0 10z" fill="#e0a95b"/></marker>
<marker id="arrow-muted" viewBox="0 0 10 10" refX="9" refY="5" markerWidth="7" markerHeight="7" orient="auto-start-reverse"><path d="M0 0L10 5L0 10z" fill="#a3adab"/></marker>
<marker id="arrow-danger" viewBox="0 0 10 10" refX="9" refY="5" markerWidth="7" markerHeight="7" orient="auto-start-reverse"><path d="M0 0L10 5L0 10z" fill="#f87171"/></marker>
</defs>
<rect width="1180" height="600" rx="16" fill="#181b1a"/>
<text x="32" y="38" font-size="17.6" font-weight="400" fill="#a3adab" text-anchor="start">Upstream releases arrive on your main, ship to your testers as Acme Beta, then to your users.</text>
<rect x="16" y="60" width="1148" height="190" rx="12" fill="#a78bfa" fill-opacity="0.06" stroke="#343a38"/>
<text x="32" y="88" font-size="16.2" font-weight="700" fill="#a78bfa" text-anchor="start">upstream  (frogg-app/frogg)</text>
<rect x="16" y="290" width="1148" height="220" rx="12" fill="#202423" stroke="#343a38"/>
<text x="32" y="318" font-size="16.2" font-weight="700" fill="#f4f7f6" text-anchor="start">your fork  (streams.upstream.suffix: "acme")</text>
<text x="32" y="144" font-size="20.3" font-weight="700" fill="#a78bfa" text-anchor="start">stable</text><text x="32" y="162" font-size="16.2" font-weight="400" fill="#a3adab" text-anchor="start">upstream/stable</text>
<text x="32" y="219" font-size="20.3" font-weight="700" fill="#a78bfa" text-anchor="start">main</text><text x="32" y="237" font-size="16.2" font-weight="400" fill="#a3adab" text-anchor="start">upstream/main</text>
<text x="32" y="384" font-size="20.3" font-weight="700" fill="#4cc38a" text-anchor="start">stable</text><text x="32" y="402" font-size="16.2" font-weight="400" fill="#a3adab" text-anchor="start">ships Acme</text>
<text x="32" y="469" font-size="20.3" font-weight="700" fill="#f5a524" text-anchor="start">main</text><text x="32" y="487" font-size="16.2" font-weight="400" fill="#a3adab" text-anchor="start">ships Acme Beta</text>
<line x1="220" y1="140" x2="1120" y2="140" stroke="#a78bfa" stroke-width="4" stroke-linecap="round" stroke-opacity="0.8"/>
<line x1="220" y1="215" x2="1120" y2="215" stroke="#a78bfa" stroke-width="4" stroke-linecap="round" stroke-opacity="0.8" stroke-dasharray="6 6"/>
<line x1="220" y1="380" x2="1120" y2="380" stroke="#4cc38a" stroke-width="4" stroke-linecap="round" stroke-opacity="0.8"/>
<line x1="220" y1="465" x2="1120" y2="465" stroke="#f5a524" stroke-width="4" stroke-linecap="round" stroke-opacity="0.8"/>
<circle cx="280" cy="140" r="8" fill="#a78bfa" stroke="#181b1a" stroke-width="2"/><text x="280" y="124" font-size="16.2" font-weight="400" fill="#f4f7f6" text-anchor="middle" font-family="'JetBrains Mono', 'SFMono-Regular', Menlo, Consolas, monospace">1.7.0</text>
<circle cx="440" cy="140" r="8" fill="#a78bfa" stroke="#181b1a" stroke-width="2"/><text x="440" y="124" font-size="16.2" font-weight="400" fill="#f4f7f6" text-anchor="middle" font-family="'JetBrains Mono', 'SFMono-Regular', Menlo, Consolas, monospace">1.8.0</text>
<circle cx="320" cy="215" r="8" fill="#a78bfa" stroke="#181b1a" stroke-width="2"/><text x="320" y="241" font-size="16.2" font-weight="400" fill="#f4f7f6" text-anchor="middle" font-family="'JetBrains Mono', 'SFMono-Regular', Menlo, Consolas, monospace">1.8.0-beta.2</text>
<circle cx="1020" cy="215" r="8" fill="#a78bfa" stroke="#181b1a" stroke-width="2"/><text x="1020" y="241" font-size="16.2" font-weight="400" fill="#f4f7f6" text-anchor="middle" font-family="'JetBrains Mono', 'SFMono-Regular', Menlo, Consolas, monospace">1.9.0-beta.1</text>
<circle cx="300" cy="380" r="8" fill="#4cc38a" stroke="#181b1a" stroke-width="2"/><text x="300" y="364" font-size="16.2" font-weight="400" fill="#f4f7f6" text-anchor="middle" font-family="'JetBrains Mono', 'SFMono-Regular', Menlo, Consolas, monospace">1.7.0-acme.1</text>
<circle cx="860" cy="380" r="8" fill="#4cc38a" stroke="#181b1a" stroke-width="2"/><text x="860" y="364" font-size="16.2" font-weight="400" fill="#f4f7f6" text-anchor="middle" font-family="'JetBrains Mono', 'SFMono-Regular', Menlo, Consolas, monospace">1.8.0-acme.1</text>
<circle cx="1050" cy="380" r="8" fill="#4cc38a" stroke="#181b1a" stroke-width="2"/><text x="1050" y="364" font-size="16.2" font-weight="400" fill="#f4f7f6" text-anchor="middle" font-family="'JetBrains Mono', 'SFMono-Regular', Menlo, Consolas, monospace">1.8.0-acme.2</text>
<circle cx="540" cy="465" r="8" fill="#f5a524" stroke="#181b1a" stroke-width="2"/><text x="540" y="491" font-size="16.2" font-weight="400" fill="#f4f7f6" text-anchor="middle" font-family="'JetBrains Mono', 'SFMono-Regular', Menlo, Consolas, monospace">1.8.0-rc.1.acme.1</text>
<circle cx="780" cy="465" r="8" fill="#f5a524" stroke="#181b1a" stroke-width="2"/><text x="780" y="491" font-size="16.2" font-weight="400" fill="#f4f7f6" text-anchor="middle" font-family="'JetBrains Mono', 'SFMono-Regular', Menlo, Consolas, monospace">1.8.0-rc.1.acme.2</text>
<path d="M 440 140 C 440 302.5, 460 302.5, 460 455" fill="none" stroke="#a78bfa" stroke-width="2.5" marker-end="url(#arrow-upstream)"/><text x="428" y="274" font-size="16.2" font-weight="600" fill="#a78bfa" text-anchor="end">sync-upstream</text>
<path d="M 780 465 C 780 422.5, 860 422.5, 860 390" fill="none" stroke="#4cc38a" stroke-width="2.5" marker-end="url(#arrow-stable)"/><text x="790" y="424" font-size="16.2" font-weight="600" fill="#4cc38a" text-anchor="end">promote</text>
<circle cx="970" cy="465" r="4" fill="#e0a95b"/>
<path d="M 970 465 C 970 422.5, 1050 422.5, 1050 390" fill="none" stroke="#e0a95b" stroke-width="2.5" stroke-dasharray="7 5" marker-end="url(#arrow-backport)"/><text x="1024" y="432" font-size="16.2" font-weight="600" fill="#e0a95b" text-anchor="start">backport</text>
<circle cx="660" cy="465" r="4" fill="#a78bfa"/>
<path d="M 660 465 C 660 340, 730 340, 730 225" fill="none" stroke="#a78bfa" stroke-width="2.5" stroke-dasharray="7 5" marker-end="url(#arrow-upstream)"/><text x="742" y="274" font-size="16.2" font-weight="600" fill="#a78bfa" text-anchor="start">contribute</text>
<rect x="32" y="541" width="298.05" height="28" rx="14" fill="#202423" stroke="#a78bfa"/><text x="44" y="560" font-size="15.5" font-weight="600" fill="#a78bfa" textLength="274.05" lengthAdjust="spacingAndGlyphs">npm run release:sync-upstream</text>
<rect x="342.05" y="541" width="213" height="28" rx="14" fill="#202423" stroke="#f5a524"/><text x="354.05" y="560" font-size="15.5" font-weight="600" fill="#f5a524" textLength="189" lengthAdjust="spacingAndGlyphs">npm run release:beta</text>
<rect x="567.05" y="541" width="241.35000000000002" height="28" rx="14" fill="#202423" stroke="#4cc38a"/><text x="579.05" y="560" font-size="15.5" font-weight="600" fill="#4cc38a" textLength="217.35000000000002" lengthAdjust="spacingAndGlyphs">npm run release:promote</text>
<rect x="820.4" y="541" width="269.70000000000005" height="28" rx="14" fill="#202423" stroke="#a78bfa"/><text x="832.4" y="560" font-size="15.5" font-weight="600" fill="#a78bfa" textLength="245.70000000000005" lengthAdjust="spacingAndGlyphs">npm run release:contribute</text>
</svg>
